# xmcd CD database file
#
# Track frame offsets:
#	150
#	25516
#	36886
#	63855
#	81803
#	98573
#	190558
#	247875
#	297769
#	315778
#
# Disc length: 4411 seconds
#
# Revision: 0
# Processed by: cddbd v1.4PL0 Copyright (c) Steve Scherf et al.
# Submitted via: CDex 1.50
#
DISCID=6811390a
DTITLE=Savoy Brown - Looking from the outside - live'69/70
DYEAR=2000
DGENRE=Blues
TTITLE0=I'm tired
TTITLE1=Hard way to go
TTITLE2=A little more wine
TTITLE3=Savoy Brown Boogie No. 2
TTITLE4=I want you to love me
TTITLE5=Louisiana Blues
TTITLE6=Memory Pain
TTITLE7=Leaving Again
TTITLE8=Money can't save your soul
TTITLE9=Looking from the outside
EXTD=YEAR: 2000
EXTT0=
EXTT1=
EXTT2=
EXTT3=
EXTT4=
EXTT5=
EXTT6=
EXTT7=
EXTT8=
EXTT9=
PLAYORDER=
